# xmcd
#
# Track frame offsets:
# 150
# 20907
# 39289
# 53757
# 69575
# 84691
# 102020
# 120591
# 139729
# 153279
# 165641
# 182970
# 199246
# 214254
# 230072
# 243946
# 260276
# 278199
# 297013
# 311381
#
# Disc length: 4338 seconds
#
#
# Revision: 0
# Processed by: cddbd v1.5.2PL0 Copyright (c) Steve Scherf et al.
# Submitted via: FreeRIP 2.951 
#
DISCID=1e10f014
DTITLE=João Paulo e Daniel - As 20 Mais de João Paulo e Daniel
DYEAR=1900
DGENRE=Country
TTITLE0=Estou apaixonado
TTITLE1=Com qual carícia
TTITLE2=Tá faltando Amor
TTITLE3=Hoje eu sei
TTITLE4=Alguém
TTITLE5=Mil Loucuras de amor
TTITLE6=Minha estrela perdida
TTITLE7=Que dure para sempre
TTITLE8=So dá voce em minha vida
TTITLE9=Cheiro dela
TTITLE10=To ficando Louco
TTITLE11=Rosto Molhado
TTITLE12=Eu me amarrei
TTITLE13=Loira do carro Branco
TTITLE14=Fazenda Sao Franciso
TTITLE15=Olhos Claros
TTITLE16=Dia de visita
TTITLE17=Nelore Valente
TTITLE18=Poeira da Estrada
TTITLE19=Amargurado
EXTD=
EXTT0=
EXTT1=
EXTT2=
EXTT3=
EXTT4=
EXTT5=
EXTT6=
EXTT7=
EXTT8=
EXTT9=
EXTT10=
EXTT11=
EXTT12=
EXTT13=
EXTT14=
EXTT15=
EXTT16=
EXTT17=
EXTT18=
EXTT19=
PLAYORDER=
